<svg width="31" height="32" viewBox="0 0 31 32" fill="none" xmlns="http://www.w3.org/2000/svg">
<path d="M23.714 9.8141C22.7086 9.81607 21.8911 9.002 21.8891 7.99658C21.8871 6.99117 22.7012 6.17366 23.7071 6.1717C24.713 6.16973 25.5305 6.98428 25.5324 7.98969C25.5339 8.99511 24.7198 9.81213 23.714 9.8141Z" fill="#2C2C2E"/>
<path fill-rule="evenodd" clip-rule="evenodd" d="M15.6378 23.9061C11.3334 23.9145 7.83663 20.4319 7.82828 16.1264C7.8199 11.822 11.3034 8.32467 15.6078 8.3163C19.9132 8.30794 23.4105 11.7925 23.4188 16.0965C23.4272 20.4019 19.9427 23.8977 15.6378 23.9061ZM15.6132 11.0517C12.8194 11.0566 10.5577 13.3266 10.5626 16.121C10.568 18.9159 12.8385 21.1771 15.6324 21.1717C18.4273 21.1663 20.6889 18.8967 20.6835 16.1019C20.6781 13.307 18.4076 11.0463 15.6132 11.0517Z" fill="#2C2C2E"/>
<path fill-rule="evenodd" clip-rule="evenodd" d="M5.65317 1.74817C6.61726 1.3704 7.72053 1.11167 9.33586 1.03543C10.9551 0.957716 11.4721 0.940003 15.594 0.932136C19.717 0.924269 20.2339 0.94 21.8532 1.01181C23.469 1.08166 24.5728 1.33646 25.5388 1.7103C26.5383 2.09544 27.3863 2.61389 28.2314 3.45551C29.0764 4.2981 29.5968 5.14316 29.9869 6.14119C30.3642 7.10627 30.6229 8.20859 30.6996 9.82492C30.7764 11.4437 30.795 11.9602 30.8029 16.0827C30.8108 20.2047 30.794 20.7221 30.7232 22.3424C30.6529 23.9573 30.3986 25.0615 30.0248 26.0271C29.6386 27.0266 29.1212 27.8746 28.2796 28.7197C27.438 29.5652 26.5919 30.0852 25.5939 30.4757C24.6288 30.8525 23.5266 31.1112 21.9112 31.1884C20.292 31.2652 19.775 31.2834 15.6516 31.2913C11.5301 31.2991 11.0132 31.2834 9.39392 31.2121C7.77808 31.1412 6.67382 30.8869 5.70826 30.5136C4.70877 30.127 3.86077 29.61 3.01572 28.7679C2.17018 27.9258 1.6493 27.0802 1.25974 26.0822C0.881975 25.1176 0.624207 24.0148 0.546991 22.3999C0.469772 20.7802 0.451579 20.2627 0.443715 16.1407C0.435821 12.0182 0.452062 11.5018 0.522883 9.88246C0.594214 8.26614 0.847537 7.16234 1.22137 6.19579C1.60748 5.19677 2.12494 4.34925 2.96753 3.50371C3.80913 2.65866 4.65515 2.13724 5.65317 1.74817ZM6.69351 27.9632C7.22917 28.1693 8.03288 28.4152 9.51296 28.4796C11.1145 28.549 11.5941 28.5642 15.6467 28.5564C19.7007 28.549 20.1803 28.5318 21.7814 28.4565C23.26 28.3862 24.0637 28.1373 24.5979 27.9287C25.3067 27.6518 25.8113 27.3208 26.3416 26.79C26.8718 26.2573 27.1999 25.7512 27.4744 25.0423C27.681 24.5062 27.9264 23.702 27.9908 22.2219C28.0612 20.6213 28.0759 20.1412 28.0681 16.0876C28.0607 12.0349 28.0435 11.5549 27.9672 9.95379C27.8974 8.47468 27.649 7.67094 27.4399 7.13725C27.163 6.42747 26.833 5.92378 26.3008 5.39303C25.7685 4.86229 25.2624 4.53518 24.5526 4.26071C24.0179 4.05363 23.2132 3.80867 21.7342 3.74424C20.1326 3.6739 19.6525 3.65962 15.599 3.6675C11.5464 3.67537 11.0668 3.6916 9.46573 3.76736C7.98616 3.83768 7.18341 4.08609 6.64824 4.29515C5.93993 4.57207 5.43526 4.90115 4.90454 5.43386C4.37477 5.96656 4.04669 6.47173 3.77223 7.18201C3.56664 7.71719 3.31921 8.52191 3.25577 10.001C3.18591 11.6026 3.17117 12.0827 3.17903 16.1353C3.18642 20.1889 3.20362 20.669 3.27889 22.2691C3.34824 23.7492 3.59859 24.5519 3.80667 25.0876C4.08359 25.7954 4.41365 26.3001 4.94537 26.8308C5.47808 27.3596 5.98422 27.6887 6.69351 27.9632Z" fill="#2C2C2E"/>
</svg>
