<svg width="25" height="26" viewBox="0 0 25 26" fill="none" xmlns="http://www.w3.org/2000/svg">
<path fill-rule="evenodd" clip-rule="evenodd" d="M0.675173 8.86853V25.2944H5.78306V8.86853H0.675173ZM0.265198 3.67326C0.265198 5.30645 1.58922 6.63047 3.22912 6.63047C4.8623 6.63047 6.18632 5.29973 6.18632 3.67326C6.18632 2.04008 4.8623 0.716064 3.22912 0.716064C1.58922 0.716064 0.265198 2.04008 0.265198 3.67326ZM19.7962 25.2944H24.8973V16.2817C24.8973 11.8593 23.943 8.45855 18.7746 8.45855C16.2946 8.45855 14.6278 9.8229 13.949 11.1133H13.8818V8.86853H8.98894V25.2944H14.0834V17.1756C14.0834 15.0316 14.4866 12.9548 17.1414 12.9548C19.7626 12.9548 19.7962 15.408 19.7962 17.31V25.2944Z" fill="#2C2C2E"/>
</svg>
