<?xml version="1.0" encoding="UTF-8"?><svg xmlns="http://www.w3.org/2000/svg" viewBox="0 0 80.39 46.31"><g id="a"/><g id="b"><g id="c"><g><rect x=".01" y="21.8" width="14.78" height="24.51" rx="1.83" ry="1.83"/><path d="M79.85,14.24L66.14,.54c-.34-.34-.81-.54-1.3-.54H1.83C.82,0,0,.82,0,1.83V12.95c0,1.01,.82,1.83,1.83,1.83H31.39c1.01,0,1.83,.82,1.83,1.83v27.86c0,1.01,.82,1.83,1.83,1.83h11.12c1.01,0,1.83-.82,1.83-1.83V16.7c0-1.04,.77-1.92,1.81-1.92h13.97c1.01,0,1.83,.82,1.83,1.83v27.86c0,1.01,.82,1.83,1.83,1.83h11.12c1.01,0,1.83-.82,1.83-1.83V15.54c0-.49-.19-.95-.54-1.3Z"/></g></g></g></svg>