<svg width="34" height="34" viewBox="0 0 34 34" fill="none" xmlns="http://www.w3.org/2000/svg">
<path fill-rule="evenodd" clip-rule="evenodd" d="M4.23988 15.3883C12.1506 11.9417 17.4256 9.66949 20.065 8.57167C27.601 5.43718 29.1669 4.89268 30.1876 4.8747C30.412 4.87075 30.914 4.92638 31.2391 5.1902C31.5136 5.41296 31.5891 5.71388 31.6253 5.92508C31.6614 6.13629 31.7064 6.61741 31.6707 6.99335C31.2623 11.2842 29.4952 21.6971 28.5963 26.5029C28.2159 28.5365 27.4669 29.2183 26.7418 29.2851C25.1659 29.4301 23.9693 28.2436 22.443 27.2431C20.0547 25.6775 18.7054 24.7029 16.3872 23.1752C13.708 21.4097 15.4448 20.4393 16.9716 18.8534C17.3712 18.4384 24.3144 12.123 24.4488 11.5501C24.4656 11.4784 24.4812 11.2113 24.3225 11.0703C24.1639 10.9293 23.9297 10.9775 23.7607 11.0158C23.5212 11.0702 19.7058 13.5921 12.3146 18.5814C11.2316 19.325 10.2506 19.6874 9.37175 19.6684C8.40286 19.6475 6.53909 19.1206 5.15356 18.6702C3.45417 18.1178 2.10352 17.8257 2.22113 16.8875C2.28239 16.3989 2.95531 15.8991 4.23988 15.3883Z" fill="#2C2C2E"/>
</svg>
