<svg width="27" height="32" viewBox="0 0 27 32" fill="none" xmlns="http://www.w3.org/2000/svg">
<path d="M20.9202 15.1189C20.7878 15.0554 20.6533 14.9944 20.5171 14.9359C20.2798 10.5637 17.8907 8.0606 13.8792 8.03498C13.8611 8.03487 13.843 8.03487 13.8248 8.03487C11.4254 8.03487 9.42989 9.05905 8.20165 10.9227L10.4078 12.4361C11.3254 11.044 12.7654 10.7473 13.8259 10.7473C13.8381 10.7473 13.8504 10.7473 13.8625 10.7474C15.1834 10.7558 16.1801 11.1398 16.8252 11.8887C17.2946 12.434 17.6086 13.1874 17.7641 14.1383C16.593 13.9393 15.3265 13.8781 13.9726 13.9557C10.1587 14.1754 7.70675 16.3997 7.87143 19.4906C7.95499 21.0584 8.73606 22.4072 10.0706 23.2883C11.199 24.0331 12.6523 24.3974 14.1627 24.3149C16.1573 24.2056 17.7221 23.4446 18.8138 22.053C19.6428 20.9963 20.1672 19.6268 20.3987 17.9013C21.3493 18.475 22.0538 19.2299 22.4429 20.1374C23.1045 21.6801 23.1431 24.2152 21.0746 26.2819C19.2622 28.0925 17.0837 28.8758 13.7914 28.8999C10.1394 28.8729 7.37735 27.7016 5.58157 25.4188C3.89997 23.2811 3.03091 20.1935 2.99849 16.2416C3.03091 12.2896 3.89997 9.20198 5.58157 7.06433C7.37735 4.78147 10.1393 3.61026 13.7914 3.58312C17.4699 3.61047 20.2801 4.78731 22.1446 7.08119C23.0588 8.20608 23.7481 9.62071 24.2025 11.2701L26.7879 10.5803C26.2371 8.55009 25.3704 6.80062 24.191 5.34973C21.8007 2.40888 18.3048 0.901973 13.8004 0.870728H13.7824C9.28715 0.901865 5.83039 2.4145 3.50814 5.36659C1.44166 7.99357 0.375712 11.6488 0.339895 16.2308L0.339783 16.2416L0.339895 16.2524C0.375712 20.8342 1.44166 24.4896 3.50814 27.1166C5.83039 30.0686 9.28715 31.5813 13.7824 31.6124H13.8004C17.7969 31.5847 20.6139 30.5384 22.9346 28.2198C25.9708 25.1864 25.8794 21.3842 24.8787 19.0501C24.1607 17.3763 22.7919 16.0168 20.9202 15.1189ZM14.0199 21.6065C12.3483 21.7006 10.6117 20.9503 10.5261 19.3433C10.4626 18.1517 11.3741 16.8221 14.1225 16.6638C14.4372 16.6456 14.7461 16.6367 15.0495 16.6367C16.0478 16.6367 16.9818 16.7337 17.8308 16.9193C17.5141 20.8744 15.6565 21.5166 14.0199 21.6065Z" fill="#2C2C2E"/>
</svg>
