<svg width="22" height="26" viewBox="0 0 22 26" fill="none" xmlns="http://www.w3.org/2000/svg">
<path d="M21.0262 0.052887C20.786 0.0214407 20.5473 0.00571751 20.3158 0.00428814H20.3029C18.652 0.00428814 17.0639 0.64322 15.9461 1.75956C14.9341 2.77014 14.3753 4.10517 14.3753 5.51883V18.0516C14.3753 20.2071 12.7658 21.8995 10.7018 21.9267C10.6632 21.9195 10.6246 21.9195 10.5874 21.9267C8.5291 21.8924 6.92677 20.2028 6.92677 18.0516V5.51454C6.92677 2.4228 4.32387 0 1.00056 0C0.779011 0 0.571751 0.0200113 0.290164 0.0557458C0.127215 0.075757 0.00428814 0.215836 0.00428814 0.380215L0 19.714C0.0471695 22.8972 2.65864 25.4858 5.82186 25.4858C7.78297 25.4858 9.58541 24.5024 10.6489 22.8843C11.7123 24.501 13.5148 25.4858 15.4759 25.4858C18.6405 25.4858 21.2506 22.8958 21.2934 19.7097L21.312 0.377356C21.312 0.212977 21.1905 0.0743277 21.0276 0.052887H21.0262ZM8.94648 23.1788C8.92933 23.1902 8.5048 23.4647 7.48423 23.4647H7.45421C6.78383 23.4618 6.12489 23.3317 5.49739 23.0773C5.07286 22.9058 4.28528 22.4798 3.76641 21.545C3.34046 20.7774 3.12462 19.8255 3.12462 18.7134V5.5903C3.12462 4.09946 2.96167 3.48197 2.59575 2.6615C2.32131 2.04544 1.81245 1.59662 1.53372 1.38364C1.50228 1.35934 1.49227 1.31646 1.51085 1.28072C1.52943 1.24499 1.57089 1.22927 1.60948 1.2407C1.65093 1.25499 2.61862 1.58518 3.21896 2.62434C3.68637 3.4348 3.94366 4.48682 3.94366 5.58887V18.7148C3.94366 19.6297 4.11947 20.4144 4.46395 21.0447C4.76269 21.5893 5.21437 22.0324 5.80899 22.3598C6.58086 22.7857 7.79869 23.0487 8.89931 23.0287H8.90074C8.93647 23.0287 8.96792 23.0516 8.97935 23.0859C8.98936 23.1202 8.9765 23.1588 8.94648 23.1788ZM19.9098 1.38364C19.6311 1.59662 19.1222 2.04544 18.8478 2.6615C18.4819 3.48197 18.3189 4.09946 18.3189 5.5903V18.7163C18.3189 19.8269 18.1031 20.7803 17.6771 21.5479C17.1583 22.4827 16.3707 22.9086 15.9461 23.0802C15.3186 23.3332 14.6597 23.4632 13.9893 23.4675H13.9593C12.9387 23.4675 12.5142 23.1931 12.4971 23.1817C12.467 23.1616 12.4542 23.1245 12.4642 23.0887C12.4742 23.0544 12.5071 23.0316 12.5428 23.0316H12.5442C13.6491 23.053 14.8627 22.7886 15.6345 22.3626C16.2292 22.0353 16.6823 21.5922 16.9796 21.0476C17.3255 20.4158 17.4999 19.6325 17.4999 18.7177V5.5903C17.4999 4.48825 17.7572 3.43623 18.2246 2.62577C18.8249 1.58518 19.7926 1.25499 19.8341 1.24213C19.8726 1.23069 19.9141 1.24642 19.9327 1.28215C19.9513 1.31789 19.9413 1.36077 19.9098 1.38507V1.38364Z" fill="#2C2C2E"/>
</svg>
