<svg width="34" height="24" viewBox="0 0 34 24" fill="none" xmlns="http://www.w3.org/2000/svg">
<path fill-rule="evenodd" clip-rule="evenodd" d="M32.2305 2.31422C32.7464 2.83342 33.1168 3.479 33.3048 4.18636C34 6.79719 34 12.2418 34 12.2418C34 12.2418 34 17.6864 33.3048 20.2972C33.1168 21.0045 32.7464 21.6501 32.2305 22.1693C31.7146 22.6885 31.0714 23.0631 30.3653 23.2556C27.7658 23.9546 17.3754 23.9546 17.3754 23.9546C17.3754 23.9546 6.98493 23.9546 4.38543 23.2556C3.67929 23.0631 3.03609 22.6885 2.52021 22.1693C2.00433 21.6501 1.63387 21.0045 1.44589 20.2972C0.750671 17.6864 0.750671 12.2418 0.750671 12.2418C0.750671 12.2418 0.750671 6.79719 1.44589 4.18636C1.63387 3.479 2.00433 2.83342 2.52021 2.31422C3.03609 1.79503 3.67929 1.42043 4.38543 1.22792C6.98493 0.528931 17.3754 0.528931 17.3754 0.528931C17.3754 0.528931 27.7658 0.528931 30.3653 1.22792C31.0714 1.42043 31.7146 1.79503 32.2305 2.31422ZM13.9749 7.29777V17.1857L22.665 12.2417L13.9749 7.29777Z" fill="#2C2C2E"/>
</svg>
